Coordinates
version=1
nRows=38
nColumns=38
inDegrees=no

Units are S.I. units (second, meters, Newtons, ...)
If the header above contains a line with 'inDegrees', this indicates whether rotational values are in degrees (yes) or radians (no).

endheader
time	pelvis_tilt	pelvis_list	pelvis_rotation	pelvis_tx	pelvis_ty	pelvis_tz	hip_flexion_r	hip_adduction_r	hip_rotation_r	knee_angle_r	ankle_angle_r	subtalar_angle_r	mtp_angle_r	hip_flexion_l	hip_adduction_l	hip_rotation_l	knee_angle_l	ankle_angle_l	subtalar_angle_l	mtp_angle_l	lumbar_extension	lumbar_bending	lumbar_rotation	arm_flex_r	arm_add_r	arm_rot_r	elbow_flex_r	pro_sup_r	wrist_flex_r	wrist_dev_r	arm_flex_l	arm_add_l	arm_rot_l	elbow_flex_l	pro_sup_l	wrist_flex_l	wrist_dev_l
0	1.64431	1.48615	3.00349	0.646053	1.44431	1.00351	-0.117095	-0.0667111	0.115443	0.865095	-0.258904	0	0	0.382232	0.0563978	-0.194933	0.618203	-0.201259	0	0	-0.304327	-0.130487	0.043748	-0.0200679	-0.260654	0.592282	0.406923	1.22226	0	0	-0.12608	-0.37186	0.452747	0.583167	1.11977	0	0
0.01	1.77941	1.48273	2.87004	0.647308	1.43383	1.0032	-0.0798968	-0.0616252	0.134513	0.919978	-0.289103	0	0	0.386316	0.05944	-0.197963	0.624434	-0.192023	0	0	-0.288457	-0.13311	0.0439441	-0.0146705	-0.273042	0.673811	0.411329	1.13175	0	0	-0.133795	-0.366885	0.423277	0.584597	1.15679	0	0
0.02	1.83069	1.47846	2.82066	0.648628	1.42309	1.00353	-0.0484947	-0.0591946	0.146711	0.97431	-0.317755	0	0	0.381166	0.0645944	-0.203002	0.626528	-0.184543	0	0	-0.28207	-0.136698	0.0406688	-0.0206979	-0.270914	0.651172	0.415878	1.15445	0	0	-0.1388	-0.37019	0.421524	0.592083	1.15367	0	0
0.03	1.84305	1.47534	2.81124	0.650051	1.41247	1.00423	-0.0201167	-0.0565114	0.155604	1.02704	-0.332516	0	0	0.371353	0.0702425	-0.206031	0.625949	-0.178748	0	0	-0.280508	-0.139248	0.035105	-0.0251708	-0.271185	0.635574	0.423453	1.17025	0	0	-0.142441	-0.375952	0.42856	0.601444	1.13673	0	0
0.04	1.84295	1.4743	2.81675	0.651717	1.4019	1.00516	0.00632681	-0.0524049	0.160271	1.07602	-0.353344	0	0	0.359733	0.0753862	-0.204452	0.623713	-0.172884	0	0	-0.280976	-0.13899	0.0262097	-0.0252353	-0.276334	0.647948	0.432346	1.15738	0	0	-0.148149	-0.376804	0.420001	0.608322	1.13747	0	0
0.05	1.82601	1.47549	2.84035	0.653551	1.39147	1.0064	0.0299812	-0.0469698	0.161091	1.12076	-0.35836	0	0	0.34587	0.0790386	-0.199097	0.620859	-0.168695	0	0	-0.284256	-0.136137	0.0168246	-0.0247164	-0.281362	0.65774	0.440128	1.14743	0	0	-0.151336	-0.37657	0.414719	0.61221	1.13986	0	0
0.06	1.81521	1.47745	2.85807	0.65541	1.38126	1.00756	0.054653	-0.0399925	0.16144	1.16462	-0.343883	0	0	0.332445	0.0820203	-0.188762	0.617772	-0.162507	0	0	-0.288577	-0.131819	0.010819	-0.0390656	-0.273539	0.574172	0.449682	1.23297	0	0	-0.149128	-0.378974	0.425244	0.615356	1.13043	0	0
0.07	1.79343	1.48121	2.88762	0.657389	1.37121	1.00879	0.0777967	-0.0316835	0.159449	1.20534	-0.30978	0	0	0.317609	0.0834927	-0.177338	0.614941	-0.156844	0	0	-0.290899	-0.1256	-0.0040423	-0.00603895	-0.312133	0.786774	0.465525	1.00913	0	0	-0.160247	-0.368207	0.380588	0.61647	1.16501	0	0
0.08	1.80436	1.48499	2.88629	0.659372	1.36134	1.00988	0.105216	-0.0230115	0.155058	1.24404	-0.287626	0	0	0.305851	0.0844265	-0.163886	0.611879	-0.152475	0	0	-0.292739	-0.118052	-0.0125129	-0.00913165	-0.313058	0.768914	0.470244	1.02693	0	0	-0.158203	-0.366887	0.382286	0.615401	1.16389	0	0
0.09	2.31088	1.51563	2.38305	0.662914	1.3495	1.00351	0.152887	0.027434	0.152372	1.29341	-0.259551	0	0	0.350377	0.0570201	-0.0852889	0.725096	-0.0927404	0	0	-0.266191	-0.0625148	0.00492521	-0.0717829	-0.344359	0.632747	0.551778	1.14792	0	0	-0.167185	-0.361979	0.406875	0.632444	1.14398	0	0
0.1	1.74655	1.49008	2.96114	0.663132	1.34182	1.01352	0.154678	-0.0129738	0.146332	1.30642	-0.258583	0	0	0.265846	0.0856131	-0.162016	0.579641	-0.153899	0	0	-0.302433	-0.107182	-0.0282951	-0.00271305	-0.315308	0.778171	0.468381	1.01849	0	0	-0.147174	-0.362358	0.390502	0.605128	1.15386	0	0
0.11	1.58841	1.48683	3.12438	0.664314	1.33226	1.01732	0.167041	-0.0145931	0.146412	1.32523	-0.251018	0	0	0.225376	0.090516	-0.179097	0.535881	-0.166834	0	0	-0.319505	-0.110572	-0.0350887	0.00957631	-0.311946	0.802893	0.456529	0.995665	0	0	-0.139103	-0.361991	0.393973	0.598851	1.15721	0	0
0.12	1.58026	1.49434	3.13839	0.665873	1.32248	1.0185	0.193127	-0.00256937	0.145642	1.34504	-0.237531	0	0	0.21358	0.085622	-0.173662	0.536429	-0.161208	0	0	-0.322643	-0.0996505	-0.0311509	-0.0255981	-0.282843	0.587108	0.453941	1.21982	0	0	-0.124561	-0.369538	0.443372	0.59787	1.11362	0	0
0.13	1.56849	1.50213	-3.1273	0.667386	1.31293	1.01973	0.2202	0.00846149	0.142041	1.36159	-0.222135	0	0	0.201198	0.0803383	-0.167931	0.535157	-0.155477	0	0	-0.322571	-0.0887875	-0.0362155	-0.00870209	-0.305267	0.699082	0.461746	1.09833	0	0	-0.124322	-0.363918	0.43236	0.595251	1.11805	0	0
0.14	1.5537	1.50769	-3.10733	0.66877	1.30357	1.02127	0.246653	0.0169202	0.139388	1.37237	-0.212185	0	0	0.185628	0.0765857	-0.165278	0.524532	-0.154346	0	0	-0.324429	-0.0807548	-0.0382692	-0.00927752	-0.304098	0.682909	0.460601	1.11386	0	0	-0.11885	-0.361671	0.437055	0.591082	1.11738	0	0
0.15	1.53782	1.5125	-3.0868	0.6701	1.29435	1.02283	0.272089	0.0244644	0.137751	1.37747	-0.204415	0	0	0.169089	0.0731696	-0.163053	0.510738	-0.154287	0	0	-0.326355	-0.0738976	-0.0400679	-0.00940341	-0.30275	0.667347	0.45922	1.13006	0	0	-0.113992	-0.360811	0.444739	0.587439	1.12192	0	0
0.16	1.51773	1.51767	-3.06278	0.671261	1.28511	1.02429	0.296939	0.0318508	0.135594	1.37808	-0.201762	0	0	0.153021	0.0690159	-0.16032	0.498728	-0.153867	0	0	-0.327729	-0.0669368	-0.0425896	-0.00578498	-0.305524	0.676072	0.459574	1.12204	0	0	-0.111917	-0.357938	0.440736	0.585221	1.12979	0	0
0.17	1.48968	1.5229	-3.03121	0.672284	1.27581	1.02566	0.320549	0.0390308	0.133487	1.37403	-0.197363	0	0	0.137206	0.0644703	-0.157666	0.488403	-0.153148	0	0	-0.328988	-0.0600562	-0.0452197	-0.00178928	-0.309335	0.689061	0.46123	1.10908	0	0	-0.110041	-0.356384	0.439336	0.584667	1.12992	0	0
0.18	1.4691	1.52765	-3.00697	0.673205	1.26641	1.02695	0.343241	0.0450238	0.130901	1.36514	-0.188673	0	0	0.121413	0.0605576	-0.153939	0.477059	-0.152362	0	0	-0.330263	-0.0537331	-0.0462227	-0.0105259	-0.299714	0.621512	0.45989	1.18202	0	0	-0.104173	-0.359971	0.459767	0.584934	1.11097	0	0
0.19	1.42099	1.53252	-2.95509	0.674207	1.25701	1.02819	0.363482	0.0499743	0.127621	1.35152	-0.179185	0	0	0.10506	0.0559263	-0.152069	0.466664	-0.151457	0	0	-0.330732	-0.0469496	-0.0516222	0.00417063	-0.315711	0.705461	0.465432	1.09676	0	0	-0.104412	-0.359574	0.459792	0.585618	1.1094	0	0
0.2	1.39881	1.53746	-2.92902	0.675207	1.24756	1.02923	0.384043	0.0538366	0.1238	1.33411	-0.172868	0	0	0.0901884	0.0514374	-0.150004	0.456508	-0.150626	0	0	-0.330666	-0.0403198	-0.0549117	0.00312177	-0.315313	0.690337	0.466972	1.11649	0	0	-0.102806	-0.359956	0.46438	0.585999	1.10467	0	0
0.21	1.36484	1.54259	-2.89141	0.676251	1.23816	1.03009	0.403754	0.0563326	0.118306	1.31322	-0.168855	0	0	0.0757692	0.0465122	-0.149339	0.447551	-0.149403	0	0	-0.328788	-0.0334934	-0.0626684	0.0286331	-0.338291	0.826829	0.474775	0.977603	0	0	-0.108601	-0.355333	0.442451	0.586973	1.11696	0	0
0.22	1.32361	1.54708	-2.84744	0.67724	1.22879	1.03085	0.422203	0.0573819	0.112652	1.28847	-0.163892	0	0	0.0606064	0.042225	-0.149096	0.43652	-0.148497	0	0	-0.325913	-0.0271684	-0.0710595	0.0634854	-0.361339	0.991168	0.483252	0.813804	0	0	-0.111988	-0.35525	0.441748	0.588913	1.10637	0	0
0.23	1.47109	1.55128	-2.99255	0.678047	1.21922	1.03135	0.44325	0.0566438	0.106857	1.26025	-0.159339	0	0	0.0484991	0.0394344	-0.14703	0.422726	-0.148785	0	0	-0.326068	-0.0226617	-0.061209	-0.00298595	-0.314288	0.639025	0.473609	1.17429	0	0	-0.0992998	-0.3602	0.472692	0.589475	1.08886	0	0
0.24	1.08123	1.55493	-2.60039	0.679161	1.21037	1.0321	0.452999	0.056867	0.0991051	1.22798	-0.148907	0	0	0.0279999	0.0347378	-0.145156	0.411885	-0.147357	0	0	-0.315296	-0.0137852	-0.101495	0.209985	-0.389005	1.5708	0.499232	0.274567	0	0	-0.12982	-0.353536	0.42846	0.592996	1.08546	0	0
0.25	1.13641	1.56	-2.65243	0.680114	1.20129	1.03235	0.470065	0.0550282	0.0915349	1.19225	-0.144235	0	0	0.0168581	0.0310027	-0.145163	0.401469	-0.147759	0	0	-0.312326	-0.00784454	-0.103378	0.212115	-0.392285	1.5708	0.502623	0.278316	0	0	-0.128026	-0.352707	0.428189	0.594659	1.08419	0	0
0.26	1.5699	1.56413	-3.08615	0.68074	1.19195	1.03237	0.487223	0.0532116	0.086853	1.1535	-0.140972	0	0	0.00572359	0.0279641	-0.149762	0.388143	-0.148332	0	0	-0.307198	-0.00432276	-0.101791	0.212858	-0.394951	1.5708	0.504895	0.283875	0	0	-0.127191	-0.352162	0.428851	0.595818	1.08611	0	0
0.27	2.10821	1.56644	2.66106	0.681519	1.183	1.03251	0.499672	0.0497372	0.0793673	1.10994	-0.138245	0	0	-0.00698468	0.0259766	-0.144844	0.376009	-0.147989	0	0	-0.305739	-0.000138037	-0.102366	0.211758	-0.398756	1.55929	0.509072	0.299225	0	0	-0.125135	-0.355128	0.438606	0.599788	1.0829	0	0
0.28	2.94295	1.56566	1.82722	0.682113	1.17397	1.03242	0.51092	0.0463685	0.0721357	1.06311	-0.135563	0	0	-0.0188583	0.0240677	-0.140748	0.364655	-0.147246	0	0	-0.303018	0.00358479	-0.103119	0.218272	-0.401949	1.5708	0.514192	0.285261	0	0	-0.125292	-0.354841	0.436261	0.603326	1.08423	0	0
0.29	-3.07669	1.556	1.56383	0.682508	1.16444	1.03183	0.527199	0.0416042	0.065363	1.01334	-0.133185	0	0	-0.023228	0.0225233	-0.137915	0.353556	-0.147487	0	0	-0.307515	0.00591813	-0.0684136	0.0523502	-0.381035	0.925083	0.514678	0.869694	0	0	-0.0997436	-0.356711	0.462894	0.604637	1.09239	0	0
0.3	-2.92594	1.55343	1.41253	0.682879	1.15552	1.03126	0.5353	0.0394918	0.0565673	0.961276	-0.130349	0	0	-0.0346141	0.0194579	-0.142817	0.344722	-0.146405	0	0	-0.293811	0.00893598	-0.0936318	0.192537	-0.411338	1.46939	0.522326	0.368066	0	0	-0.119988	-0.350709	0.429087	0.605146	1.10022	0	0
0.31	-2.89579	1.54776	1.38221	0.683276	1.14619	1.03048	0.544278	0.0355684	0.0468387	0.906506	-0.12873	0	0	-0.0431831	0.0176284	-0.143572	0.335283	-0.145786	0	0	-0.286561	0.0113319	-0.0959134	0.212052	-0.41054	1.54239	0.522291	0.305918	0	0	-0.121718	-0.348801	0.425677	0.604508	1.10145	0	0
0.32	-2.87554	1.54344	1.36198	0.683746	1.13678	1.02971	0.549831	0.031114	0.0343317	0.848556	-0.126974	0	0	-0.0540637	0.0166218	-0.140804	0.324163	-0.145639	0	0	-0.28202	0.0138013	-0.0957002	0.220657	-0.411048	1.5708	0.522994	0.275799	0	0	-0.12055	-0.346747	0.425359	0.60265	1.10288	0	0
0.33	-2.87826	1.53895	1.36539	0.684292	1.12737	1.02876	0.554362	0.0259453	0.0191833	0.788902	-0.126195	0	0	-0.0640641	0.0158616	-0.139306	0.314628	-0.144881	0	0	-0.278066	0.0160044	-0.0944841	0.22107	-0.412999	1.5708	0.524218	0.26531	0	0	-0.118084	-0.344959	0.426796	0.6007	1.10392	0	0
0.34	-2.88092	1.53446	1.36983	0.684925	1.11789	1.02767	0.557204	0.0204045	0.00100454	0.72731	-0.126581	0	0	-0.0738258	0.015112	-0.137299	0.305495	-0.143786	0	0	-0.274305	0.0186113	-0.0935085	0.220703	-0.41508	1.5708	0.525343	0.257776	0	0	-0.114802	-0.342901	0.429345	0.597487	1.10493	0	0
0.35	-2.92053	1.52533	1.41237	0.685495	1.10797	1.02633	0.563016	0.0134778	-0.0189741	0.664063	-0.130527	0	0	-0.0787867	0.0149217	-0.131054	0.295567	-0.143943	0	0	-0.27893	0.0198795	-0.060389	0.0520093	-0.391953	0.938673	0.51884	0.839296	0	0	-0.0853579	-0.346629	0.473682	0.593182	1.09978	0	0
0.36	-2.87717	1.52741	1.37275	0.686334	1.09864	1.02542	0.555771	0.00883501	-0.0426188	0.600723	-0.134645	0	0	-0.0964022	0.0131227	-0.127945	0.285401	-0.143222	0	0	-0.268795	0.0245558	-0.0944653	0.219155	-0.418815	1.5708	0.527062	0.249603	0	0	-0.108015	-0.339338	0.43735	0.58997	1.10561	0	0
0.37	-2.90104	1.5221	1.4006	0.686966	1.08878	1.02393	0.556727	0.00318718	-0.0647334	0.542523	-0.134946	0	0	-0.104739	0.0121917	-0.125235	0.277932	-0.142408	0	0	-0.262981	0.0263199	-0.0967437	0.217027	-0.419322	1.5708	0.526099	0.256045	0	0	-0.106846	-0.338763	0.441735	0.58818	1.10341	0	0
